<svg version="1.1" xmlns="http://www.w3.org/2000/svg">
<svg id="eye" transform="translate(0,0)" width="24" height="24" viewBox="0 0 24 24" fill="none" xmlns="http://www.w3.org/2000/svg"><path d="M2.11436 12.6607C5.37194 21.7884 18.3095 21.7515 21.8619 12.7343C22.046 12.2668 22.046 11.7332 21.8619 11.2657C18.3096 2.24849 5.37194 2.21162 2.11436 11.3393C1.96188 11.7666 1.96188 12.2334 2.11436 12.6607Z" stroke="#6C63FF" stroke-width="2" stroke-linecap="round" stroke-linejoin="round"/><path d="M8.5 12C8.5 13.933 10.067 15.5 12 15.5C13.933 15.5 15.5 13.933 15.5 12C15.5 10.067 13.933 8.5 12 8.5C10.067 8.5 8.5 10.067 8.5 12Z" stroke="#6C63FF" stroke-width="2" stroke-linecap="round"/></svg>
<svg id="bookmark" transform="translate(32,0)" width="24" height="24" viewBox="0 0 24 24" fill="none" xmlns="http://www.w3.org/2000/svg"><path d="M4 19V10C4 6.22876 4 4.34315 5.17157 3.17157C6.34315 2 8.22876 2 12 2C15.7712 2 17.6569 2 18.8284 3.17157C20 4.34315 20 6.22876 20 10V19C20 20.6569 18.6569 22 17 22C16.3509 22 15.7193 21.7895 15.2 21.4L14.7692 21.0769C13.1282 19.8462 10.8718 19.8462 9.23077 21.0769L8.8 21.4C8.28071 21.7895 7.64911 22 7 22C5.34315 22 4 20.6569 4 19Z" stroke="#6C63FF" stroke-width="2" stroke-linecap="round"/><path d="M9 8H15" stroke="#6C63FF" stroke-width="2" stroke-linecap="round"/></svg>
</svg>